/* XPM */
static char *result[] = {
/* columns rows colors chars-per-pixel */
"64 64 12 1 ",
"  c #161C2E",
". c #2D5F67",
"X c #36797E",
"o c #387E82",
"O c #47ABA9",
"+ c #506A69",
"@ c #9BB94E",
"# c #BFBA5B",
"$ c #79A863",
"% c #8CC3C4",
"& c #679175",
"* c white",
/* pixels */
"        ...XoooooooooooOOOooooooooo       o   oo      ooooooo   ",
"         .    ooooooooo     +++++o                              ",
"     @@        o    ++       ++++    ###   $$    ###          ##",
"@   @@@@             +  $$$   %%%   ##### $$$$  #####   $$   ###",
"#  @@@@@   ###   @@@   $$$$$       ###### $$$$  #####  $$$$ ####",
"#  @@@@@  ##### @@@@@  $$$$$       #######$$$$#######  $$$$ ####",
"# @@@@@@ ###### @@@@@@@@@$$   ###   #######$$#######   $### ###@",
"#@@@@@@  #@@@@#$$@@@@@@@@@$  ######  ######$########  ########@@",
"##@@@@@ @@@@@@@$$@@@@@@@@@@ ######## ##############  #########@#",
"###@@@@@@@@@@@@@$$@@@@@@@@##@@##################################",
"###@@@##@@@@@@@@@@@@@@@@@@#@@@@########@@@#####@@####@@#########",
"###@@#####@@@@@@@@@@@@@@@@@@@@@@@@@###@@@@@##@@@@@@#@@@@########",
"###################@@@@@@@@@@@@@@@@@##@@@@@#@@@@@@@@@@@@########",
"#########@@@@@@@@@@@@@@@@@@@@@@@@@@@@@@@@@@#@@@@@@@@@@@@#####@@@",
"@@@@@@@@@@@@$$$$$$@@@@@@@@@@@@@@@@@@@@@@@@@@@@@@@@@@@@@@@@@@@@@@",
"@@@@@@@@@@$$$$$$$$$@$$$$@@@@@@###@@@@@@@@@@@@@@@@@@@@@@@@@@@@@@@",
"@@@@@@@@$$$$$$$$$$$$$$$$$@@@######@@@@@@@@@@$$$@@@@@@@@@@@@@@@@@",
"@@@@@@@$$$$$$$$$$$$$$$$$$#############$$$@@$$$$$@@@@@@@@@@@@@@@@",
"@@@@@$$$$$$@@@@@$$$$$$$$$$$$#########$$$$$$$@@$$$@@@@@@$$$@@@@@@",
"@@@$$$$$$$@@@@@@@$$$@@@$$$$$$$###$$$$$@@$$$@@@@$$$@@@@$$$$$@@@$$",
"$@@@@@@@@@@@@@@@@$$@@@@@@@@@@@@@@@@@@@@@@@@@@@@@@@@@@$$$$$$$$$$$",
"$$$$@@@@@@@@@@@@@@@@@@@@@@@@@@@@@@@@@@$$@@@@@$$$$@@@@$$$$$$$$$$$",
"@@@@@@@@@@@@@@@@@@@@@@@&&&&&&@@@&&&@$$$$$@$$$$$$$$@@$$$$@@@$$$$$",
"@@@@@@@@&&&&&@@&&&@@@####&&&&&@&&&&&$$$$$$$$$$$$$$$$$$$@@@@@@@@@",
"@@@@@@@&&&&&&&&&&&&@#######&&&&&&##&&$$$$$$$$$$$$$$$$$$@@@@@@@@@",
"@@@@@&&&####&&&##&&#########&&&&####&&##$$$@@$$@@@$$$$@@@@@@@@@@",
"@@&&&&#######################&&##########$$@@@@@@@@$$$$$$$$$$@@@",
"#&&####################$$$####&##@@########@@@@@@@@$$$$$$$$$$$$$",
"##########$$$#########$$$$$#####@@@@#########@@@@@@$$$$$########",
"@@@@@@##$$$$$$$##$$$$$$$$$$$$$@@@@@@@@@@@###@@@@@@$$############",
"@@@@@@@@@@@@$$$$$$$$$$$$$$$$$$$$$@@@@@@@@@@@@@@@@@@@@@@@@@@@@@@@",
"@@@@@@@@@@@@@@@@$$$$$$$$$$$$$$$$$$$$@@@$$$$$$@@@@@@@@@@@@@@@@@@@",
"###@@@@@@@@@@@@@@@@@$$$$$$$$$$$$$$$$$$$$$$$$$@@@@@@@@@@@@@@@@@@#",
"####@@@@@@@@@@@@$$$$$$$@@@$$$$$$$$$$$$$$$###$@@@@@@@@@@@@@@@@@##",
"#######@@@@$$$$$$$$$$$@@@@@$$$$$$$@@@@@@#####@@@@@@@@@@@@@######",
"@@@#####@@@@@@@@@@@@@@@@@@@$$$$@@@@@##@@######@@@@@@@@@@@@@@####",
"@@@@#####@@@@@@@@@@@@@@@@@@@@@@@@@############@@@@@@@@@@@@@@@@#@",
"@@@@@@@@@@@@@@@@@@@@@@@@@@@@@@@@@########$$$######@@@@@@@@@@@@@@",
"@@@@@@@@@@@@@@@@@@@@@@@@@@@@@@@@$$$$$$$$$$$$$##########$$$@@@@@@",
"@@@@@@@@@@@@@@@@@@@@@@@@@@@@@@@$$$$$@@$$$$$$$$$$$$$$$$$$$$$$$$$@",
"$$$$$$$$@@@@@@@@@@@@@@@@@@@@$$$$$$@@@@@$$$$$$$$$$$$$$$$$$$$$$$$$",
"$$$$@@@@@@@@@@@@@@@@@@@@@@@@@@@@@@@@@@@@@@$$$$$$$$$$$$$$$$$$$$$$",
"@@@@@@@@@@@@@@@@@@@@@@@@@@@@@@@@@@@@@@@@@@@$$$@@@@$$$$$$$$$$$$@@",
"@@@@@@@@@@@@@@@@@@&&&&&@@@@&&&&&@@@@@@###@@$$@@@@@@$@@@$$@@@@@@@",
"@@@@@@@@@@@@@@@@&&&&&&&&@@&&&&&&&@@@@#####@$$@@@@@@@@@@@@@@@@@@@",
"@@@@@@@@@@@@@@@&&&###&&&&&&&####&&@@########$$@@@@@@@@@@@@@#####",
"@@@@@&&&&&@@&&&&&######&&&&#######&@#########@@@@@@@@@##########",
"@@@@&&&&&&&&&&&&&########&###################@@@@@@############@",
"&&@&&&##&&&&&##&&&#############################@@@@##########@@@",
"&&&&&####&&&#####&#############################@@@@@@@@@@@@@@@@&",
"&##&&#########################@@@@#####$$#########@@@@@@@@@@@@@&",
"#####################$$$$####@@@@@@###$$$$#########@@@@@@@@##&&&",
"#####@@@#####@@@@###$$$$$$@@#@@@@@@@$$$$$$######@@@@@@@@@#######",
"####@@@@@###@@@$$$$$$$$$$$@@@@@@@$$$$$$$$$@@@@@@@@@@@@@#########",
"##@@@@@@@###@@$$$$$$$$$$$@@@@@@@$$$$$$$$$$$@@@@@@@@@@@###@@@####",
"@@@@@@@@@@@#@@$$$$$$$$$$$$$$$@@$$$$$$@@$$$$$@@@@@@@@####@@@@@###",
"@@@@@@@@@@@@$$$$$$$$$$$$$$$$$$$$$$$$@@@@@$$$$$@@@@@@@@@@@@@@@@@@",
"@@@@@@$$$$$$$$$$@@@$$$$$$$$$$$$$$$$$@@@@@@@@@@@@@@@@@@@@@@@@@@@@",
"@@@@@@@@@$$$$$$@@@@@$$@@@$$$$$$$@@$$@@@@@@@@@@@@@@@@@@$$$@@@@@@@",
"@@@@@@@@@@@@$$$@@@@@$@@@@@@$$$$@@@@$$@@@@@@@@@@@@@@@@$$$$$@@@@@@",
"@@@@@@##@@@@@@@@@@@@@@@@@@@@@@@@@@@@@@@@@@@@@@$$$@@@$$$$$$@@@@@@",
"@@@@@####@@@@####@@@@@@@@@@@@@@@@@@@@@@@@@@@@$$$$$$$$$$$$$@@@@@@",
"@@@################@@@@@@@@$$$$@@@@@@@@@@@@@$$$$$$$$$$$$$$$$$@@@",
"$$##############$$$$@@$$$$$$$$$$$@@$$$$@@@@$$$$$$$$$$$$$$$$$$$$$"
};
