/* XPM */
static char *result[] = {
/* columns rows colors chars-per-pixel */
"64 64 6 1 ",
"  c #47ABA9",
". c #161C2E",
"X c #866353",
"o c #B48355",
"O c #DAB570",
"+ c white",
/* pixels */
"                                                                ",
"                                                                ",
"                                                                ",
"                                                                ",
"                                                                ",
"........  ..............  .............  ..............  .......",
"................................................................",
"Xoooooo....oooooooo..oo....ooooooo..oo....oo..oooooooo....oooo..",
"Xooooooo..oooooooooo.ooo..ooooooooo.ooo..ooo.oooooooooo..oooooo.",
"oooooooo..oooooooooo.ooo..ooooooooo.ooo..ooX.oooooooooo..oooooo.",
"oooooooo..oooooooooo.ooo..ooooooooo.ooo..ooX.oooooooooo..oooooo.",
"oooo.ooo..oooooooooo.ooo..ooooooooo.ooo..ooX.oooooooooo..ooooooX",
"oooo.ooo..oooooooooo.ooo..ooooooooo.ooo..ooX.oooooooooo..ooooooX",
"oooo.ooo..oooooooooo.ooo..ooooooooo.ooo..ooX.oooooooooo..ooooooX",
"oooo.ooo..oooooooooooooo..ooooooooooooo..ooXXoooooooooo..ooooooX",
"oooo.ooo..oooooooooooooo..ooooooooooooo..ooXXoooooooooo..ooooooo",
"ooo.Xooo..oooooooooXoooo..ooooooooXoooo..ooXXoooooooooo..ooooooo",
"ooo.XoXo..oooooooooXoooo..ooooooooXoooo..ooXXoooooooooo..ooooooo",
"ooo.XXXo..oooooooooXoooo..ooooooooXoooo..oooXoooooooooo..ooooooo",
"ooo..XXo..oooooooooXoooo..ooooooooXoooo..oooXoooooooooo..ooooooo",
"oooX.XXo..ooooooooo.oooX..oooooooo.oooXX.oooooooooooooo..ooooooo",
"oooX.XXX..ooooooooo.oooX..oooooooo.oooXX.oooooooooooooo..ooooooo",
"oooX.XXX..ooooooooo.oooX..oooooooo.oooXX.oooooooooooooo..ooooooo",
"oooX.XXX.Xooooooooo.oooX.Xoooooooo.oooXX.ooooooooooooooX.ooooooo",
"oooX.XXX.Xooooooooo.oooX.Xoooooooo.oooXX.ooooooooooooooX.ooooooo",
"oooo.XXX.Xooooooooo.oooX.Xoooooooo.oooXX.ooooooooooooooX.Xoooooo",
"oooo.XXX.Xooooooooo.oooX.Xoooooooo.oooXX.ooooooooooooooX.Xoooooo",
"oooo.ooX.Xooooooooo.oooX.Xoooooooo.oooXX.ooooooooooooooX.Xoooooo",
"oooo.ooX.Xooooooooo.oooX.Xoooooooo.oooXX.ooooooooooooooo.Xoooooo",
"ooooXooX.Xooooooooo.oooX.Xoooooooo.oooXX.ooooooooooooooo.Xoooooo",
"ooooXooo.XXooo.oooo.oooX.Xooo.oooo.oooXX.ooooooooo.ooooo.Xoooooo",
"ooooXooo.XXooo.oooo.oooX.Xooo.oooo.oooXX.Xoooooooo.ooooo.Xoooooo",
"ooooXooo.XXooo.oooo..ooX.Xooo.oooo..ooXX.Xoooooooo.ooooo.Xoooooo",
"ooooXooo.XXooo.XoooX.ooX.Xooo.XoooX.ooX..Xoooooooo.ooooo.ooooooo",
"oooooooo.XXooo.XoooX.ooX.Xooo.XoooX.ooX..Xoooooooo.ooooo.ooooooo",
"oooooooo..XoooX.oooX.ooX..oooX.oooX.ooX..XooXoooo.Xoooo..oooooo.",
"Xooooooo..XoooX.oooX.ooo..oooX.oooX.ooo..XooXoooo.Xoooo..oooooo.",
"Xooooooo..Xooo..oooXXooo..ooo..oooXXooo..XooXoooo..oooo..oooooo.",
"Xooooooo..Xooo.XoooXXooo..ooo.XoooXXooo..XooXooooo.oooo..ooooooX",
"Xooooooo..Xooo.XoooXXooo..ooo.XoooXXooo..XooXooooo.oooo..ooooooX",
"Xooooooo..Xooo.XoooXXooo..ooo.XoooXXooo..XoXXooooo.oooX..ooooooX",
".ooooooo..XooX.Xoooooooo..ooX.Xoooooooo..XoXXooooo.oooX..ooooooX",
".ooooooo..oooX.Xoooooooo..ooX.Xoooooooo..XoXXooooo.oooX..ooooooX",
".ooooooo..oooX.Xoooooooo..ooX.Xoooooooo..XXXXooooo.oooX..ooooooX",
".ooooooo..oooX.Xoooooooo..ooX.Xoooooooo..XXXXooooo.oooo..ooooooo",
".ooooooo..oooX.ooooooooo..ooX.ooooooooo..oXXXooooo.oooo..ooooooo",
".ooooooo..oooo.ooooooooo..ooo.ooooooooo..oXXXooooo.oooo..ooooooo",
".ooo.ooo..oooo.ooooo.ooo..ooo.ooooo.ooo..ooX.ooooo.oooo..ooooooo",
".ooo.ooo..oooo.ooooo.ooo..ooo.ooooo.ooo..ooo.ooooo.oooo..ooooooo",
".OOO.ooo..oooo.ooooo.oOO..ooo.ooooo.oOO..ooo.oooOO.oooo..ooooooo",
".OOO.OO....OOO.OOOOO.OO...OOO.OOOOO.OO....oo.OOOOO.OOO....OOOOOO",
".OO............................................................O",
"...............XXX............XXX..............XXX..............",
"XXXXXXXX..XXXXXXXXXXXXXX..XXXXXXXXXXXXX..XXXXXXXXXXXXXX..XXXXXXX",
"XXXXXXX....XXXXXXXXXXXX....XXXXXXXXXXX....XXXXXXXXXXXX....XXXXXX",
"................................................................",
"........  ..............  .............  ..............  .......",
"                                                                ",
"                                                                ",
"                                                                ",
"                                                                ",
"                                                                ",
"                                                                ",
"                                                                "
};
